<svg xmlns="http://www.w3.org/2000/svg" width="513" height="17" fill="none"><mask id="a" width="513" height="17" x="0" y="0" maskUnits="userSpaceOnUse" style="mask-type:alpha"><path fill="#C4C4C4" d="M.738.242h512.097v15.961H.738z"/></mask><g mask="url(#a)"><path fill="#DF6951" d="m77.656-3.135 1.252-.21-2.436-.302 1.168-.22c1.17.001 2.687.332 3.513.156.1-.17-1.174-.225-1.5-.36a4 4 0 0 1-.702-.413c.638.002 1.34.034 2.062.097.972.101 1.925.15 2.755.142 1.697.028 3.335 0 5.18.006l-.614-.41 2.377.097c.252.03.553-.02.8.02 2.06.326 2.932.148 3.921 0q.306-.057.727-.085c2.748.079 5.226.537 7.701.772.466.06.912.137 1.309.225a29.4 29.4 0 0 0 5.533.55c1.85-.003 3.941.11 6.069.331.633.073 1.267.12 1.86.141s1.134.012 1.587-.024l1.439.234c.624-.095 1.415-.147 2.325-.153s1.92.034 2.97.118c1.118.09 2.253.152 3.413.248 2.397.183 4.729.296 6.925.333 3.269.111 6.464.197 9.762.336 2.064.066 4.075.103 6.02.11 2.331.026 4.852.152 7.441.373-.122.207-1.258.146-2.02.14-2.459-.035-4.975-.125-7.505-.192a115 115 0 0 0-3.318-.03 121 121 0 0 1-5.627-.164 237 237 0 0 0-8.92-.16 8 8 0 0 0-.612.044q-.057.027-.021.065a.4.4 0 0 0 .157.078q.122.04.298.07c.115.02.239.035.361.044 1.133.14 2.351.291 3.42.313a1.5 1.5 0 0 1 .252.03c2.394.297 4.362.247 6.226.295 3.096.13 6.08.192 8.908.182.427 0 .888.018 1.367.05 2.961.133 5.731.147 8.178.044 1.007-.026 1.943-.085 3.026-.086a12 12 0 0 0 1.706-.11c.459-.069.787-.168.965-.29q.686.097 1.385.172c.278.028.545.036.746.02.201-.014.322-.05.339-.1.083-.141-.551-.212-1.102-.272.332-.03.706-.048 1.113-.053a133 133 0 0 1 7.326.113c1.997.128 3.592.024 5.693.205.252.031.459-.015.691-.026.605-.058 1.358-.07 2.195-.038s1.731.111 2.606.228c1.09-.318 3.444.045 5.183.078.535.161-.079.133-.106.177-.026.045 0 0-.21-.026-1.736.23-4.114.28-6.8.143q-.747 0-1.416.031c-.675.029-1.435.026-2.249-.008a25 25 0 0 0-2.41.035c-.405 0-.748.023-.996.07-.249.047-.395.116-.425.199.271.064.571.122.889.173 1.66.201 3.315.284 4.64.233 2.305-.087 5.049-.002 7.501-.032a103 103 0 0 1 5.258.103l-.053.09c.217.034.445.063.672.082l.022-.037a2.6 2.6 0 0 0-.394-.096l-.546-.068c.371-.017.718-.07 1.105-.038.814.06 1.593.085 2.289.074.696-.01 1.294-.057 1.759-.136.825-.102 1.85-.148 3.01-.136a81 81 0 0 0 2.567-.071s.053-.089.441-.136a17 17 0 0 0-1.134-.14 315 315 0 0 0-4.96-.226 28 28 0 0 0-1.685.03c-1.436.03-3.05-.013-4.748-.127l-.503-.063c.476-.195 2.118 0 2.782-.132.404.003 1.116.02 1.091-.015q-.083-.071-.019-.127.066-.056.266-.086c.133-.02.303-.03.5-.03s.416.012.64.033c1.869.113 3.629.145 5.173.093.586 0 1.242.034 1.823.043.356.01.68.004.956-.017 1.404-.155 3.293-.167 5.383-.032a31 31 0 0 0 2.784.019c.589-.007.839.104 1.259.156l1.783.11-2.29.137c.49.315.879.418 1.679.438q1.752.045 3.402.04c.813-.002 1.484-.07 2.584.05a4 4 0 0 0 .531.018c1.288-.107 2.84-.131 4.55-.072.885-.2 2.392-.005 3.787.152.45-.151-.366-.22-.852-.312 1.166.009 2.341.004 3.545.026.362-.008.776.005 1.21.04.433.034.873.088 1.287.158.202.045.445.078.679.094s.441.012.578-.01c.625-.066 1.626-.005 2.142-.116.184-.026.447-.03.741-.01s.601.06.866.114q-.436.024-.768.08c-.791.116-.501.31.504.594 1.541-.016 3.116-.011 4.545-.065a22 22 0 0 1 2.818.043c1.046.077 2.12.211 3.102.389.355.068.76.115 1.134.132s.69.002.885-.041q.183-.077.11-.185l-1.008-.125.048-.081 1.449-.012c.767 0 1.566.02 2.291.014a38 38 0 0 1 3.57.06c1.19.08 2.36.14 3.5.18 1.102.041 1.901-.09 2.95-.111.793-.016 1.666.001 2.585.05 1.587.087 3.043.087 4.237 0 1.391.467 2.067.542 3.359.416l.607-.035.166.1.464-.022c.868-.02 1.736-.04 2.642-.047 1.259.044 2.619.16 3.946.338.252.031.595.137.816.22.222.083.704.334 1.058.497-.386.119-.814.233-1.12.37q-.047.035.009.08a.6.6 0 0 0 .201.093c.096.03.216.059.351.083s.281.044.425.056c.283.028.561.046.825.055a89 89 0 0 0 3.715-.033c.429-.05 1.017-.055 1.669-.013s1.334.128 1.935.245c1.537-.07 3.324-.05 5.237.061 2.023-.067 4.467.069 6.357-.078-.044.074.151.201.423.274.43.112.918.215 1.442.306l3.997.177q.224.137.557.276c.152.073.417.144.738.199.321.054.673.088.982.093.796.027 1.462-.033 2.411.116-1.461.141-3.43.123-5.558-.053a85 85 0 0 0-5.698-.197c-.585-.001-1.356.007-1.539.087-.406.228-1.466.192-2.703.15a22 22 0 0 0-2.59.015c-.731.056-1.283.161-1.612.307-.084.14.116.26.969.342l3.546.328a36 36 0 0 0 1.486-.15c.787-.076 1.759-.097 2.84-.06 1.081.036 2.242.128 3.393.269.588.072 1.175.145 1.602.11q.562-.06 1.03-.142.096-.056.075-.126c.226.022.453.05.672.084 1.751.391 3.107.384 4.339.283.334-.03.588-.078.926-.116.337-.037.456-.086.764-.072 2.448.128 3.153-.3 5.216-.283q.152-.026.181-.073.027-.047-.076-.105a5.5 5.5 0 0 0-1.008-.125c-.949-.055-1.788-.038-2.372.048a33 33 0 0 1-1.312.084l-2.066-.622c2.002.057 3.895.057 5.635 0 .38-.033 1.023.023 1.558.033l3.932.058c.808.005 1.497-.092 2.625.135 0 0 .744.036.943.005a38 38 0 0 0 1.604-.349c.61.036 1.454.133 1.834.1a13 13 0 0 0 1.713-.304l2.375.175q-.004.233-.258.437c-.186.13-.179.286.018.455s.58.347 1.117.52l2.345.91c.383.06.791.101 1.169.117.378.015.707.005.943-.03 1.009-.106 2.14-.189 3.149-.294 1.302.161.967.422 1.914.65l3.065.38c.468.352.944.689-.478.806-.283.02-.092.156-.35.211 1.105.264 2.321.343 3.441.506.442.117.811.24 1.091.365.306.188.928.38 1.731.534.802.154 1.721.26 2.557.291 1.404.1 2.842.248 4.248.439.48.067.974.115 1.448.142s.916.033 1.298.015c1.361-.03 2.513-.133 3.381-.304.858-.144 2.015-.214 3.365-.203 2.31.287 2.776.718 4.173 1.097l-2.414.043c-.087.148.072.334-.917.331-.99-.003-.488.138-.167.281.113.072.334.146.625.21.291.063.634.112.971.139l2.056.183c.728.07 1.434.1 2.038.086s1.084-.07 1.387-.162c.348-.088.828-.148 1.411-.175.743-.072 1.354-.178 1.81-.316l2.901.2c.124-.138.522-.235 1.129-.274.606-.04 1.383-.018 2.199.06l1.956.122c2.174.134 2.651.09 3.287-.3l-2.607-.696c.379-.183.745-.345 1.111-.506-.65-.23-1.516-.446-2.512-.629q-1.395-.294-2.863-.569c-1.061-.187-2.182-.35-3.499-.56-.23-.068-.564-.19-.991-.306a47 47 0 0 0-1.336-.332c.088-.148.167-.281-.002-.453.812.055 1.65.15 2.439.28.79.128 1.506.284 2.084.455.097.03.216.059.349.084.133.024.277.045.423.06 1.425.104 2.106.324 2.803.593.469.137 1.074.26 1.731.35 1.26.155 2.493.356 3.698.529.369.057.752.105 1.134.14a55 55 0 0 1 3.737.463c.395.05.774.114 1.106.19s.606.16.8.245c-.3.093-.462.21-.476.346-.052.089.832.27 1.25.4.418.132-.402.07-.68.083-1.142.026-1.354.08-.67.37q.345.14.446.27.098.13-.066.23c-.162.274-.656.499-.995.767.527.176 1.406.364 1.502.583.046.048.144.1.285.15.142.05.324.099.534.142a13 13 0 0 1 1.469.323c.413.12.726.246.915.37.062.05.211.104.418.15.206.046.455.082.697.098.288.021.546.018.721-.007.174-.026.252-.072.217-.13a.53.53 0 0 0-.114-.34c.048-.082.096-.163-.094-.298.86.05 1.764.148 2.612.285s1.609.308 2.2.494c.652.192 1.254.393 1.977.618-.149.252-.149.252 1.39.697l8.166.216 1.673.295c1.561.257 1.932.24 2.912.107l.66-.125c1.385.171 2.981.369 3.848.047.281.21.465.28.401.312-.414.31-1.132.572-2.128.777-.254.048-.433.121-.728.164-.954.242-1.175.615-.619 1.044.277.19.678.384 1.191.576-.751.267-1.747.489-2.959.658-1.029.131-1.877.307-2.518.522-.576.217-1.439.38-2.539.48-.557.043-.964.127-1.18.243-.064.316.083.655.439 1.008.067.107.258.224.557.34.299.115.698.227 1.167.326 0 0 .226.076.334.121.09.383-.248.72-.992.99-.122.076-.371.13-.721.159a9 9 0 0 1-1.266 0c-1.01-.046-1.953-.052-2.93-.078-1.052-.036-1.979-.007-2.683.083s-1.159.24-1.317.43a.3.3 0 0 1-.092.156q-.045.039-.048.082l2.242.627-2.537.25c-.149.251 1.069.402 1.679.589l-.377.104c-.486.059-1.14-.054-1.732-.12l-.588-.072-.07.118c-.366.162-1.701-.02-2.222.099-.521.118-.149.251.631.38.543.095 1.125.171 1.704.222s1.138.076 1.637.072c.298-.012.545-.041.727-.085a51 51 0 0 1 3.481-.474c.97-.118 2.184-.168 3.558-.147.403-.009.889.019 1.373.079s.934.148 1.273.249l.711.016s.389.104.334.121c-.271.308.044.684.897 1.072l-.742.035c-1.06-.036-.388.199-.546.314-.754-.022-1.733-.12-2.09.027l-.535-.01.21.026.254-.048.997.219c-.472.036-.814.081-1.232.101-.23.017-.414.048-.539.09q-.19.063-.191.153c.001.092-.123.17-.361.225a5 5 0 0 1-.998.091c-.497.002-.782.102-1.073.138l1.266.601s-.63-.078-.287.028l.044-.074.767.15c.553.133.939.165 1.266.07.326-.094.252.032.409-.005-.057.096-.413.164-.717.221-.352.046-.75.079-1.186.1.786.423.824.435-.325.547-1.148.112-.752.28-1.712.304-.961.025.131.31.774.367.477.036.963.093 1.425.167s.889.162 1.252.26l-.193.325a15 15 0 0 1-.84-.104c-.93-.179-1.777-.347-2.605-.243l.394.247-2.89-.143c.075.185.516.396 1.229.589a.66.66 0 0 0-.198.333c-.048.081-.333.03-.519.039-.661.013-1.204.069-1.581.16-.377.092-.576.218-.579.367-.074.125.943.386 1.579.378 1.588.025 3.306.122 5.06.285 1.069.021 1.22-.31 2.979-.084.035.153-.19.276-.642.352-.451.076-1.105.1-1.861.069.43.34 2.812.427 2.917.782a19 19 0 0 1-1.84-.17 14 14 0 0 1-1.652-.326 3 3 0 0 0-.371-.083 5 5 0 0 0-.439-.052 4 4 0 0 0-.4-.007 1 1 0 0 0-.262.04c.33.127.693.276 1.107.414.413.139.513.199.811.228 2.226.275 3.284.772 5.209 1.098.504.062.567.26.129.238a8 8 0 0 0-1.088.009c-.295.028-.497.08-.583.15a8 8 0 0 1-1.196.193c1.974.51 4.329.96 6.842 1.308.476.069.972.111 1.416.12 1.403 0 2.892.04 4.436.12.548.022 1.054.02 1.491-.005 1.434-.061 2.572.072 3.612.447l1.721.594c-.057.096-.346.204-.569.35l1.345.318 10.259-.73 2.06.707 2.953-.04c.226.021.454.05.672.084.597.209 1.064.41 1.712.61.648.199 1.806.223 2.613.458s1.616.24 2.615.38c.094.181-.003.345-.285.48-.092.156-.6.252-.688.4.01.15-.179.276-.549.37-.369.092-.909.148-1.569.162-1.848.318-4.077.545-6.619.673-.224.01-.409.031-.544.063q-.205.05-.244.126c.003.145-.166.27-.496.367s-.813.161-1.412.19c-.16.006-.281.025-.347.053-.227.018-.393.053-.481.102q-.132.074-.021.174c.075.066.228.135.445.202.217.066.491.127.796.177q.662.12 1.35.231c-.026.045-.481.052-.415.092q.27.194.122.35c-.1.101-.338.183-.696.238l2.452 1.035c1.488.143 2.948.386 4.103.682q0 .075-.193.118a2.7 2.7 0 0 1-.535.046c-.599.022-1.164.063-1.809.086a5.5 5.5 0 0 0-.965.113c-.243.057-.396.132-.45.22l1.44.385c-.461.094-.803.139-1.108.197.173.12.47.246.868.365.398.12.886.23 1.428.324a5.4 5.4 0 0 0 .829.047c1.114-.132 2.419.101 3.685.322 1.267.22 1.955.353 2.89.524l1.789.023c.453.081.857.177 1.18.279s.556.208.68.31c-.096.162-.945.073-1.451.09-1.199.1-2.777.08-4.471-.062-.42-.052-.85-.01-1.259-.005q-1.322.03-2.537.099a27 27 0 0 0-1.491.157c-.122.207 1.811.367.714.47.378.046.519.111.713.088a31 31 0 0 0 3.538.192c2.045-.029 4.368.066 6.778.275 2.601.218 5.096.309 7.279.266a29 29 0 0 1 2.718.13 41 41 0 0 0 3.292.225 12.7 12.7 0 0 1 2.257.224c-.031.052-.369.09-.294.115 1.078.388 1.515.791 3.173 1.187 1.134.14 2.436.302 3.177.116s.476-.346-1-.823c.32-.007.706.015 1.09.063a6.5 6.5 0 0 1 1.01.197l1.276.357 1.15.34-.263.445c-.132.149.013.33.413.52q.362.154.629.308c.719.408.927.794.601 1.115-.625.46-1.494.884-2.599 1.267-1.167.371-1.805.84-2.767 1.245-.49.185-1.086.35-1.78.495-1.317.321-2.761.627-4.082.956-1.322.329-2.815.565-4.282.836-2.186.321-4.548.6-7.074.832-1.563.203-3.168.401-4.614.636-1.708.263-3.714.453-5.968.563-1.992.132-3.771.328-5.304.582q-.241.042-.377.105c-.276.26-1.049.443-2.202.521q.106.114.268.232c.16.093.194.18.096.25s-.322.12-.644.143c-.922.064-1.689.174-2.265.323-.212.037-.343.092-.383.16-.04.066.013.144.155.225.125.083.134.16.026.22s-.328.102-.632.118q-1.172.119-2.502.19c-1.885.106-4.076.105-6.443-.003-.252-.032-.506.016-.8-.02-1.674-.12-3.229-.14-4.476-.054-1.462.034-2.99.027-4.532.043a78 78 0 0 0-6.107.188c-2.086-.13-3.258.097-5.018.102-1.626.023-3.166.08-4.607.168-2.324.117-4.638.22-6.928.357-2.149.066-4.127.19-5.901.373-.68.083-1.911-.045-2.374.128-.463.172-1.397.152-2.153.21l-2.383.141c-.409.034-.86.055-1.344.064-2.216.012-3.75.243-5.806.29l-.21-.026c-3.652.343-7.83.532-12.412.56-2.677.105-5.604.1-8.444.177-.678.154-2.278-.036-3.128.105-.849.141-2.237.049-3.333.072-1.095.023-2.166.081-3.337.08-1.016 0-1.875.063-2.497.182-1.421.198-3.152.314-5.117.344-2.6.05-5.058.167-7.702.142.038.144-.124.266-.47.355-.345.088-.862.14-1.496.148-2.827.055-5.391.198-8.256.24h-.766l-8.568.084c-2.309.016-4.533.042-6.887.06-.882-.11-.904.079-1.513.043-.171-.093-.372-.133-.672-.083l-.066.11-9.778.148c-3.829.108-7.856.14-12.047.097-.995.01-1.923.047-2.77.11q-1.179.033-2.452.03a139 139 0 0 0-3.355-.043c-2.865.043-5.871.02-9.008-.011s-5.514.024-8.306.02a278 278 0 0 1-5.73-.067c-.934-.02-2.086-.131-3.053-.171s-1.284-.04-1.412.023c-.421.178-1.48.063-2.326.046-1.65-.03-1.884-.09-2.332-.551l2.024-.146a13 13 0 0 1 1.813-.025 22 22 0 0 1 2.138.204c.279.044.571.078.859.102s.566.035.818.034c2.043-.025 4.058-.077 6.021-.12l.287-.028.018-.41c-.26-.041-.529-.074-.798-.1l-9.848-.266c-2.26-.066-4.607-.213-6.825-.273s-3.413-.098-5.134-.16a81 81 0 0 1-2.216-.14.2.2 0 0 0 .074-.125c.04-.067.092-.155-.226-.227a8 8 0 0 0-1.3-.24 20 20 0 0 0-1.317-.06 44 44 0 0 1-6.357-.605l-.726.236c-3.122-.132-6.29-.263-9.551-.388-.653-.035-1.338-.1-2.004-.193-.714-.088-1.371-.273-2.122-.374a52 52 0 0 0-2.199-.169q.294-.091.762-.144c.305-.012.527-.05.635-.108s.094-.134-.038-.215c-.233-.14-.335-.272.171-.289.467-.032.801-.1.963-.199.162-.098.145-.221-.049-.355a.8.8 0 0 1-.18-.229l-.21-.026c-.692-.276-2.076-.376-3.068-.602a11 11 0 0 0-1.379-.107c-1.098-.049-2.168-.07-3.303-.131-.543-.029-1.11-.08-1.669-.151-.797-.1-.881-.11-1.345-.469.72.006 1.29-.047 1.615-.152.325-.104.384-.253.168-.422-.594-.367-1.221-.754-3.906-1.015a78 78 0 0 0 2.525-.077c.234-.008.41-.035.503-.077s.1-.098.018-.159c-.081-.06-.247-.125-.474-.183a6 6 0 0 0-.796-.142 41 41 0 0 0-4.27-.402c-1.157-.024-2.202-.01-3.554-.011l-1.596-.198c.027-.044-.208-.105-.148-.13.405-.227.853-.45 1.313-.695-.735-.132-1.373-.291-1.839-.46s-.742-.34-.796-.494q-.059-.07.031-.123a.9.9 0 0 1 .315-.08c.42-.03.745-.087.948-.166s.281-.18.226-.292l-1.241-.416a248 248 0 0 0-10.94-.632l-3.19-.093c-.385-.112-.265-.16.097-.163s1.38.028 2.092.044c.614.022 1.16.008 1.584-.041.424-.05.712-.131.836-.239l-1.072-.474c.053-.089.128-.215.709-.206.397-.01.689-.055.83-.127s.121-.167-.055-.27q-.039-.112.119-.2c.859-.004 1.714-.002 2.494-.024.363-.008.669-.035.899-.08.229-.047.375-.11.429-.185q.041-.111-.2-.245a3.4 3.4 0 0 0-.719-.258c-1.222-.102-2.339-.103-3.108-.003-.274.078-.714.12-1.262.122a15 15 0 0 1-1.808-.113 14 14 0 0 0-2.029-.108c-.589.017-1.008.09-1.182.202-.741-.044-1.397-.077-2.044-.126a17 17 0 0 0-2.088-.052c-.963.02-2.001.008-3.09-.033-3.14-.103-6.283-.198-9.323-.241-.804-.012-1.5.02-2.295-.006s-1.425.046-2.419-.101a6 6 0 0 0-.557-.043 4 4 0 0 0-.462.012c-1.746.116-3.794.133-6.023.048-3.053-.02-6.219-.079-9.276-.092-.897.011-1.744.042-2.533.091q-.902.045-1.884.06c-.501.01-.981-.018-.896.144s-.667.06-1.1.03a136 136 0 0 1-4.545-.316 55 55 0 0 0-4.362-.246c-.985-.011-2.001.03-3.268-.19.049-.082.097-.163.373-.248a36 36 0 0 0-3.439-.588 40 40 0 0 0-3.616-.286l-1.586-.443c-.39-.052-.789-.09-1.171-.111a11 11 0 0 0-1.054-.014 6 6 0 0 1-.829-.046 5 5 0 0 1-.767-.151 10 10 0 0 0-2.183-.27 34 34 0 0 1-3.37-.323c-.29-.095-.472-.194-.523-.283-.051-.09.031-.167.236-.22.33-.097.515-.219.545-.36.029-.141-.098-.298-.374-.462q-.213-.151-.139-.28.077-.126.428-.208c.869-.25.637-.39-.785-.804a8 8 0 0 0-.818-.19 12 12 0 0 0-.973-.135 53 53 0 0 0-2.3-.15c-.42-.052-.851-.01-1.334-.03-2.42-.102-2.774-.265-3.557-.616l-.571-.253a40 40 0 0 0-3.391-.5 39 39 0 0 0-3.398-.214 11 11 0 0 1-1.383-.1 58 58 0 0 0-4.59-.393 27 27 0 0 1-2.864-.276c-.947-.142-1.806-.326-2.474-.529-.6-.182-1.385-.346-2.246-.468-1.008-.125-1.102-.272-.539-.385a49 49 0 0 1 2.342-.377c.291-.04.472-.106.521-.19.05-.083-.033-.182-.24-.284q-.2-.262-.068-.493.069-.096-.095-.213c-.109-.077-.292-.157-.537-.234a8 8 0 0 0-.882-.212 13 13 0 0 0-1.07-.153c-1.554-.193-3.065-.38-4.65-.52a42 42 0 0 1-1.973-.245 56 56 0 0 0-4.165-.58 11.5 11.5 0 0 1-1.84-.315 67 67 0 0 1-4.362-1.16 9 9 0 0 0-1.215-.356 19 19 0 0 0-1.604-.286c-.462-.057-.838-.184-1.194-.267-.259-.195-.286-.374-.08-.522s.639-.26 1.258-.325a31 31 0 0 0 1.644-.265c.612-.078 1.34-.125 2.156-.139.966-.041 1.68-.16 2.05-.341-2.645-.328-5.16-.798-7.48-.688L61.52 39l.189-.318c.419-.175.55-.396.382-.644-.14-.12-.127-.23.036-.316.162-.088.47-.15.89-.181 2.487-.32 5.364-.535 7.698-.897a26 26 0 0 1 2.533-.092c.914-.022.876-.185-.176-.387a89 89 0 0 0-1.804-.303c-2.695-.016-3.793.468-6.868.333l-1.426-.637q-.579-.015-1.12-.012l-5.156.26c-.43.012-.764.056-.965.127-.201.07-.261.164-.173.271q.052.197-.21.355c-.113.074-.041.171.2.272.541.225-.154.258-.594.315a4 4 0 0 1-.38-.001 6 6 0 0 1-.843-.105 3 3 0 0 1-.33-.086c-.774-.215-1.451-.442-2.212-.68.54-.226-.096-.599.747-.804q.142-.062.111-.147-.032-.085-.234-.178c-.343-.16-.506-.314-.474-.45.033-.135.261-.246.66-.321l.05-.082c-1.056-.273-.776-.517-1.19-.806l-1.015-.19c-2.525-.455-2.53-.448-4.703-.431-.438-.174.119-.2.536-.22l3.496-.194c2.286-.13 4.638-.22 7.191-.27 2.553-.049 5.4-.212 8.04-.33a1 1 0 0 0 .297-.053q.093-.039.06-.094a3 3 0 0 0-.402-.11 6 6 0 0 0-.52-.083c-.84-.104-1.702-.171-2.597-.258l-1.669-.151-.513-.199c-.334-.12-.562-.268-1.007-.355a12 12 0 0 0-1.15-.142 9 9 0 0 0-1.053-.02c-.834.04-1.59.097-2.387.15s-1.236.108-1.928.134a137 137 0 0 0-4.066.092 48 48 0 0 0-3.042.418c-.578.063-1.12.14-2.107.056-.469-.074-.873-.173-1.14-.277-.269-.105-.384-.209-.325-.293.053-.067.203-.119.436-.153.233-.033.541-.047.895-.04a39 39 0 0 0 2.732-.122c1.147-.125 2.543-.18 4.106-.159.53.018.886-.049 1.35-.071.463-.022.856-.077 1.373-.036 1.607.103 2.377-.056 3.34-.159.325-.045.527-.12.583-.213.056-.094-.037-.205-.268-.32a14 14 0 0 0-1.622-.685 9 9 0 0 0-1.222-.31c-.477-.092-1-.168-1.528-.221-.316-.14-.485-.278-.49-.4-.007-.123.15-.227.456-.303.779-.174 1.47-.35 3.215-.254.82.037 1.593.045 2.286.021a48 48 0 0 1 5.155.202c.476.042.945.07 1.392.085 3.185.1 6.22.15 9.265.186 1.612.017 3.238.012 4.921.062 3.948.107 7.542.052 11.353.087 1.995.018 3.781-.054 5.265-.214a5 5 0 0 0 .741-.186 33 33 0 0 0-3.135-.425 28 28 0 0 0-2.993-.111c-.488.052-1.12.06-1.824.027a21 21 0 0 1-2.164-.22l2.066-.061c1.369-.03 2.771-.038 4.103-.08 2.116-.072 4.077-.186 6.268-.232 1.77-.043 3.352-.152 4.699-.324a39 39 0 0 1 3.313-.265c.872-.027.872-.027 1.43-.284-.443-.165-1.015-.189-1.554-.192a164 164 0 0 0-9.163-.055c-1.44.007-2.72.077-3.774.208-.258.056-.919.03-1.449.011a105 105 0 0 0-4.747.024 89 89 0 0 1-6.821-.05c-.465-.13.07-.119.096-.163 1.897-.083 3.757-.178 5.692-.248a35 35 0 0 1 1.69-.037c2.222.043 4.075-.078 5.297-.345.061-.104.865-.091 1.22-.159q.264-.087.347-.203c-.518-.191-1.103-.192-1.554-.193q-1.964.032-3.768.122a53 53 0 0 1-3.677.045c-.977-.026-1.812.014-2.797.003a36 36 0 0 1-1.648-.11c.624-.133 1.473-.214 2.486-.24.768-.079 1.73-.103 1.852-.31-.363-.148-.767-.15-1.092-.135q-1.015-.001-1.955.028a74 74 0 0 1-4.283.001 42 42 0 0 0-2.262.014c-1.597.033-3.127.105-4.59.139-2.995.034-5.726.156-8.604.22-.64.017-1.215.073-2.06-.024-.843-.096-.88-.11-.98-.17-.237-.1-.308-.196-.2-.27.167-.07.493-.108.92-.108 2.573-.11 5.013-.264 7.305-.462a22 22 0 0 0 2.621-.24 19 19 0 0 1 2.034-.16q1.683-.09 3.503-.13a9 9 0 0 0 1.41-.13c.367-.07.614-.166.726-.281l-1.486-.383a34 34 0 0 0-.694-.046l-12.333.276-1.222.007c-1.338-.023-1.666-.08-2.935-.522 2.898-.105 5.176-.409 6.607-.882q-.517-.076-1.05-.13a87 87 0 0 0-6.483-.088c-1.175.005-2.384-.01-3.596-.017.354-.218 1.713-.153 2.599-.202 2.115-.077 3.987-.236 5.553-.472.54-.092 1.216-.15 1.996-.174.781-.008 1.433-.063 1.9-.162.467-.098.735-.237.78-.403q.11-.227.472-.418c-.426-.181-1.103-.354-1.904-.487a18 18 0 0 0-2.446-.235 101 101 0 0 1-5.104-.362 30 30 0 0 0-2.486-.141 18 18 0 0 1-2.212-.172c-.752-.105-1.437-.248-1.952-.407a93 93 0 0 1-1.99-.596c-.649-.2-1.4-.452-2.157-.696a48 48 0 0 0-1.94-.074 14 14 0 0 1-1.63-.077c-.58-.059-1.15-.148-1.643-.257.289-.107.616-.202.96-.326-.473-.164-.815-.331-1.007-.491s-.228-.31-.108-.441c.07-.119-.444-.317-.621-.474-.228-.136-.271-.262-.123-.363s.48-.17.953-.202c.587-.057 1.064-.142 1.413-.254q.174-.043.17-.115-.006-.07-.189-.151a3 3 0 0 0-.503-.152 7 7 0 0 0-.695-.114 29 29 0 0 0-2.208-.154 152 152 0 0 0-3.472-.072 39 39 0 0 1-3.945-.267c-1.217-.15-2.31-.286-2.905-.574s-1.547-.279-2.28-.489c.412-.189 1.143-.32 2.12-.38.639-.022 1.173-.079 1.566-.167.394-.088.64-.205.72-.345l-2.223-.585c-1.774-.275-2.757-.063-4.674-.174l1.976-.216q.06-.032.044-.074c-.192-.437-.498-.53-2.518-.772l-1.133-.14-1.795-.167c-.287-.09-.486-.183-.576-.271q-.136-.134.062-.23c.263-.105.343-.24.232-.392-.174-.1-.188-.193-.04-.262.147-.069.448-.11.85-.115.32-.008.343-.124.518-.19.173-.09.469-.16.868-.204.4-.043.892-.06 1.445-.05a77 77 0 0 0 4.568-.1l-.252-.032c1.465.067 2.835.076 4.042.024 1.21-.064 2.764-.023 4.05-.062 1.046.009 1.842-.08 2.22-.25.366-.16 1.696-.123 2.715-.092q.906.03 1.742.025c.748-.037 1.682-.002 2.647.097.29.031.575.047.829.047 2.454.042 4.904.091 7.325.113a16 16 0 0 1 1.889.083c.284.03.56.041.791.035 3.826-.067 8.142.103 11.893.011a21 21 0 0 1 1.495-.013c1.209.054 2.258.019 2.989-.099.394-.062.9-.097 1.484-.101.585-.004 1.235.022 1.91.077 1.124.073 2.163.08 3.007.023a135 135 0 0 1 5.177-.066c.553.01 1.038-.011 1.419-.06.38-.05.647-.126.778-.224-.442-.166-.926-.186-1.386-.172-1.78-.037-3.556-.083-5.304-.1a96 96 0 0 0-4.48-.047 15.6 15.6 0 0 1-2.439-.143 20.6 20.6 0 0 0-3.036-.201 47 47 0 0 1-2.096-.038 14 14 0 0 1-1.386-.171 7 7 0 0 0-1.125-.124 4 4 0 0 0-.476.011 1.2 1.2 0 0 0-.306.06c-.675.225-2.184.11-3.476.085-1.937-.383-3.378-.156-5.188-.372a5 5 0 0 0-.415-.026 3 3 0 0 0-.343.011c-3.503.13-7.585.022-11.263.067-.405.006-.876-.016-1.359-.065-3.152-.325-6.184-.417-8.5-.259a11 11 0 0 1-.948.002c-1.585-.13-3.1-.18-4.419-.15-2.067-.01-4.055-.002-6.156-.032-1.448-.042-2.719.003-3.684.132-.03.052-.674-.004-1.167-.01-.283-.13-.529-.248-.82-.364-.262-.143-.653-.287-1.147-.424a17 17 0 0 0-1.72-.367c-1.092-.136-1.2-.332-.437-.404 1.97-.239 4.445-.337 7.246-.286 2.342.004 4.726.013 7.1.037 1.385.02 2.845.067 4.193.075q.684.026 1.396.077c.583.05 1.148.077 1.666.08a68 68 0 0 1 5.481.106c.718.025 1.408.033 2.059.025 1.54-.03 3.209-.008 4.964.067a87 87 0 0 0 3.16.066c.359.004.65-.031.995-.004 3.034.28 5.182.077 7.913.185 1.327.03 2.595.03 3.786 0 2.324.002 4.713.033 7.158.093 3.232.098 6.227.064 9.313.105q.915.013 1.76-.005a144 144 0 0 1 8.852.048 16 16 0 0 0 1.88-.056c.527-.052.93-.136 1.184-.248.108-.076.038-.175-.195-.278q-.584-.197-1.305-.384L74.88 1.017a79 79 0 0 0-2.143-.035C70.697.978 68.594.946 66.44.885 64.31.828 62.275.838 60.212.821A78 78 0 0 1 58.343.78C54.035.61 49.834.507 45.771.47c-1.71-.005-3.557-.083-5.3-.108S36.344.327 34.277.317L27.875.32c-1.259-.005-2.485.01-3.706.017-1.482-.54-1.993-.667-3.971-.904a18 18 0 0 0-1.985-.15c-1.963.042-4.427-.136-6.289-.113-1.123-.011-2.077.049-2.762.175-.596.098-1.276.176-2.032.233-2.07-.463-2.252-.764-.695-.88.422-.028 1.003-.02 1.308-.077.174-.035.413-.055.697-.059.283-.003.604.01.937.039 1.05.076 2.034.093 2.854.051a22 22 0 0 1 2.746.007c.756.094 1.42-.039 2.074-.077s1.19-.107 2.21-.004c.188.02.373.033.544.036.17.003.32-.003.438-.018 1.096-.066 2.405-.059 3.82.02 2.168.079 4.203.081 6.034.01 1.096-.064 2.03-.177 2.766-.333.2-.053.499-.084.866-.092 1.842.033 3.841.156 5.87.362a51 51 0 0 0 2.274.194c1.534.104 3.017.162 4.406.172 2.018.002 4.119.042 6.284.12 1.337.043 2.625.059 3.849.047a74 74 0 0 1 3.998.098c1.39.058 2.615.025 3.528-.095q.451-.097.72-.229c-2.034-.284-4.14-.428-5.89-.403-.665-.02-1.217 0-1.918-.11l-.022.036c-.14.024-.35.03-.59.016a5 5 0 0 1-.718-.09l.22-.37q2.003.024 3.878-.005c1.054-.028 2.484.22 3.396.127 1.779.117 2.911-.045 4.506.002s3.352.2 4.947.247q2.09.04 4.047.017c.45-.02.969-.016 1.524.014a16 16 0 0 0 2.096.027c.589-.038 1.016-.122 1.232-.242a15 15 0 0 0-.795-.409c.583-.123 1.467-.175 2.522-.148l1.491-.006c.395.003.697-.03.844-.093s.126-.151-.056-.246c-2.828-.478-2.932-.53-5.007-.223l-2.755-.143zm37.266 1.311-.21-.026zM458.27 48.954l-.048.081.052-.089.462.058.031-.052zm-67.065-35.68a83 83 0 0 0-1.974-.244 4 4 0 0 0-.472-.007 1.3 1.3 0 0 0-.316.045c-.053.088.316.15.652.192.424.056.857.091 1.254.103a6.4 6.4 0 0 0 1.006-.038l.38-.032-.53-.018ZM54.924 34.919c.43.015.837.018 1.212.008 1.665-.072 3.26-.177 4.967-.243 2.154-.17 4.63-.238 7.333-.204 1.056.016 1.948-.038 2.573-.158a9.5 9.5 0 0 1 1.417-.11l7.147-.196c.442-.04.824-.097 1.137-.169l-1.301-.16a8 8 0 0 0-1.303.068c-.356.092-.956.128-1.683.102a79 79 0 0 0-2.143-.035c-1.31.004-2.629.023-3.943.035-.511.255-2.02.14-3.313.114l-.998.012c-3.264.132-6.381.313-9.337.543-.571.04-1.064.101-1.462.185q-.225.1-.14.236l-.21-.026.046-.002Zm145.733 24.325a60 60 0 0 1 2.461.106c.651.055 1.286.088 1.88.098 3.329.057 6.797.189 10.359.393.466.031.914.047 1.326.045l2.916-.051c.918-.03.936-.06.267-.452a64 64 0 0 0-1.68-.208c-.335-.041-.881-.11-1.009-.045-.779.173-2.2.06-3.395.024-3.46-.095-7.028-.235-10.521-.35a57 57 0 0 0-2.138-.042c-.425-.006-.812.005-1.146.032a1.3 1.3 0 0 0-.24.025q-.091.02-.11.051-.02.032.038.07a.7.7 0 0 0 .18.076c.286.088.616.172.98.249zM226 2.258l3.408-.046c.409-.005.756-.058 1.193-.035 2.334.07 4.494.051 6.39-.059a22 22 0 0 1 2.224-.026c2.522.081 4.9.084 7.071.01a66 66 0 0 0 3.92-.15q.14-.03.17-.078.028-.049-.06-.107-.023-.036-.121-.077a2 2 0 0 0-.252-.074 4.5 4.5 0 0 0-.699-.093 41 41 0 0 0-4.213-.117 70 70 0 0 1-3.72.04c-1.259-.005-2.113.143-3.669.03-.658-.037-1.238-.025-1.643.035-.815.099-1.952.104-3.21.015a30 30 0 0 0-2.129-.057c-1.597.033-3.123.098-4.603.16-.466.015-.966.017-1.491.007l-7.409-.123c-1.781-.038-3.557-.084-5.304-.101a50 50 0 0 0-3.943.036 68 68 0 0 1-4.104.08c-2.275.035-4.537.049-7.013.044q-2.37.006-4.847-.036c-.834-.038-1.543-.007-1.989.087-.272.078-.91.014-1.441-.004-2.828-.173-5.48-.214-7.771-.12q-.441.022-.957.016c-2.206-.003-4.493-.024-6.611-.024q-.839.01-1.568.06c.052.053.2.11.414.16s.476.09.734.109c2.003.149 3.938.227 5.722.232 2.969-.019 6.08.024 9.3.127 2.498.105 4.776.083 6.664-.064 1.476-.11 3.396-.068 5.43.116.87.089 1.715.124 2.419.102a24 24 0 0 1 2.286.02 99 99 0 0 0 5.026.115c1.551-.03 2.997-.114 4.59-.139s4.018-.01 5.981-.053q2.945-.064 5.825-.018M84.778-2.07c.18.229.817.371 1.502.432 2.362.27 4.697.386 6.612.326 1.035-.083 2.415-.05 3.869.09 1.692.147 3.274.171 4.466.069.293-.018.516-.056.652-.11l.083-.14a4 4 0 0 0-.449-.102 6 6 0 0 0-.533-.068l-7.822-.262-1.364-.057a93 93 0 0 0-7.016-.178m15.388 3.621c1.221.374 1.225.367 1.85.452 3.018.355 6.034.546 8.688.552.59-.001 1.091-.037 1.46-.105.19-.01.311-.039.336-.082s-.046-.096-.2-.148l-.971-.263a205 205 0 0 0-5.203-.271c-1.982-.079-3.738-.082-5.792-.114zM200.51 57.59c1.138.514 1.142.506 3.047.639a65 65 0 0 0 3.824.164c1.478.016 2.994.045 4.467.069.36.016.665.002.856-.039.191-.04.254-.106.177-.183a4.2 4.2 0 0 0-.858-.23 9 9 0 0 0-1.138-.129l-.804-.012c-.977-.025-1.991-.064-2.934-.07-.612.022-1.321.006-2.072-.047a27 27 0 0 1-2.254-.258zM106.241-1.398c.303.09.647.174 1.021.254 1.449.22 2.983.344 4.3.35.623.013 1.193-.035 1.827.035 1.138.095 2.24.145 3.248.148 0 0 .283-.02.375-.025l.193-.325a23 23 0 0 0-1.469-.182c-1.662-.087-3.294-.146-4.923-.213-1.628-.066-2.196-.097-3.261-.126q-.714.024-1.311.084m-35.98 40.48 2.174.666c.703.058 1.36.069 1.872.03.51-.038.847-.124.959-.243.179-.056.197-.139.05-.231s-.448-.187-.839-.264a14 14 0 0 0-1.262-.241c-.456-.067-.93-.119-1.39-.151zm18.103-3.319a41 41 0 0 0-3.977-.135c-.752.066-1.772.045-2.85-.059-1.96-.207-3.849-.264-5.269-.16 0 0-.052.089-.293.115-.24.026.714.088.924.114 1.54.064 3.088.113 4.427.136.831-.002 1.71.02 2.622.062 1.255.066 2.445.087 3.524.063 0 0 .417-.02.887-.128zM240.238 1.051a25.3 25.3 0 0 0-4.265-.41c-.498-.006-.901.027-1.145.095s-.316.166-.203.279l1.554.192c1.31-.004 2.427-.064 4.059-.156M367.39 11.628a17 17 0 0 0-1.733-.223 12 12 0 0 0-1.588-.03c-.232.011-.075.126-.114.193q-.04.023.001.054a.5.5 0 0 0 .148.062c.071.02.159.039.255.053a15 15 0 0 0 1.915.066c.475-.02.852-.069 1.098-.146zm8.519 1.444c-.084-.06-.263-.122-.505-.175a6 6 0 0 0-.81-.115c-.497-.003-.948.014-1.336.05-.422.026-.119.199.452.301a8 8 0 0 0 1.463.118c.213-.004.389-.021.516-.05q.19-.043.212-.114zM128.357-.764c-1.271-.213-2.249-.16-3.325-.245s-1.342-.094-1.198.043.882.109 1.344.166c.624.076 1.252.12 1.814.126.561.006 1.034-.025 1.365-.09m264.861 36.045a49 49 0 0 0-1.969-.1q-.127.03-.154.075-.027.046.049.102s.431.109.683.14c.928.107.974-.046 1.391-.217m95.153 19.848c.456.143.668.241 1.033.31.168.024.341.041.507.051s.32.011.452.004c.16-.041.198-.105.105-.177 0 0-.464-.13-.641-.135-.504-.03-.993-.049-1.456-.053M106.722-1.981c-.966-.12-1.89-.235-2.559-.095 1.534.15 1.534.15 2.559.094Zm15.643 1.365c-.975-.256-1.548-.28-2.016-.25-.099.008-.165.024-.187.047q-.033.036.064.081c.064.03.166.058.29.082.125.024.265.042.4.051q.763.011 1.449-.011m50.194.108c.022-.037.048-.081-.204-.113a2.4 2.4 0 0 0-.462-.057l-.044.074zm34.855 61.43-.56.034.252.031.664.019zm197.505-48.427c-.21-.026-.42-.052-.451 0q-.067.013-.08.033-.012.022.032.048l.42.052zm-32.699.414q-.209-.005-.367.01l-.026.045.42.052zM87.255 23.49a6 6 0 0 0-.504-.063l-.21-.026s.225.076.351.091c.126.016.228-.003.363-.003Z"/></g></svg>