<svg xmlns="http://www.w3.org/2000/svg" width="19" height="19" fill="none"><g clip-path="url(#a)"><path fill="#84829A" d="M18.33.058a.7.7 0 0 0-.298.07l-5.04 2.52L7.293.115l-.03-.009a.7.7 0 0 0-.159-.04 1 1 0 0 0-.162 0 .7.7 0 0 0-.159.04l-.03.01L.768 2.775a.67.67 0 0 0-.395.607v14.631a.665.665 0 0 0 .935.608l5.715-2.54 5.716 2.54c.01.004.02 0 .03.006a.59.59 0 0 0 .504-.011c.01-.005.023 0 .033-.008l5.32-2.66a.67.67 0 0 0 .368-.595V.723a.665.665 0 0 0-.664-.665M6.358 14.922 1.703 16.99V3.815l4.655-2.069zm5.986 2.069-4.656-2.07V1.747l4.656 2.07V16.99Zm5.32-2.048-3.99 1.995V3.794l3.99-1.995z"/></g><defs><clipPath id="a"><path fill="#fff" d="M.371.056h18.622v18.622H.371z"/></clipPath></defs></svg>