<svg xmlns="http://www.w3.org/2000/svg" width="24" height="20" fill="none"><path fill="#fff" d="M4.5 11.125a1.5 1.5 0 1 0 0 3 1.5 1.5 0 0 0 0-3m0 2.25a.75.75 0 1 1 0-1.5.75.75 0 0 1 0 1.5m15-2.25a1.5 1.5 0 1 0 0 3 1.5 1.5 0 0 0 0-3m0 2.25a.75.75 0 1 1 0-1.5.75.75 0 0 1 0 1.5M8.625 13h6.75v.75h-6.75zm0-1.5h6.75v.75h-6.75zm2.25-5.625h2.25v.75h-2.25z"/><path fill="#fff" d="M23.25 9.25V8.5a1.13 1.13 0 0 0-1.125-1.125H20.64l-.776-2.723-.233-.926a1.125 1.125 0 0 0-1.091-.851h-3.165v-1.5a.75.75 0 0 0-.75-.75h-5.25a.75.75 0 0 0-.75.75v1.5H5.46a1.125 1.125 0 0 0-1.091.851l-.229.923-.78 2.726H1.875A1.13 1.13 0 0 0 .75 8.5v.75a1.12 1.12 0 0 0 .529.949A1.87 1.87 0 0 0 .75 11.5V16a1.12 1.12 0 0 0 .375.832v1.418a1.13 1.13 0 0 0 1.125 1.125h3a1.13 1.13 0 0 0 1.125-1.125v-1.125h11.25v1.125a1.13 1.13 0 0 0 1.125 1.125h3a1.13 1.13 0 0 0 1.125-1.125v-1.418A1.12 1.12 0 0 0 23.25 16v-4.5c0-.486-.19-.953-.529-1.301a1.12 1.12 0 0 0 .529-.949M9.375 1.375h5.25v1.5h-5.25zM5.096 3.91a.375.375 0 0 1 .364-.285h13.08a.375.375 0 0 1 .364.285l.116.465H4.98zm-.315 1.215H19.22l1.282 4.5H9.716a2.247 2.247 0 0 0-4.432 0H3.499zm4.167 4.5H6.051a1.494 1.494 0 0 1 2.896 0ZM1.5 8.5a.375.375 0 0 1 .375-.375h1.271l-.427 1.5h-.844A.375.375 0 0 1 1.5 9.25zm4.125 9.75a.375.375 0 0 1-.375.375h-3a.375.375 0 0 1-.375-.375v-1.125h3.75zm16.5 0a.375.375 0 0 1-.375.375h-3a.375.375 0 0 1-.375-.375v-1.125h3.75zM22.5 16a.375.375 0 0 1-.375.375H1.875A.375.375 0 0 1 1.5 16v-.375h21zm0-1.125h-21V11.5a1.13 1.13 0 0 1 1.125-1.125h18.75A1.13 1.13 0 0 1 22.5 11.5zm0-5.625a.375.375 0 0 1-.375.375h-.844l-.427-1.5h1.271a.375.375 0 0 1 .375.375z"/></svg>