<svg xmlns="http://www.w3.org/2000/svg" width="16" height="13" fill="none"><path fill="#181e4b" d="M16 1.539a6.8 6.8 0 0 1-1.89.518A3.26 3.26 0 0 0 15.553.244a6.6 6.6 0 0 1-2.08.794 3.28 3.28 0 0 0-5.674 2.243c0 .26.022.51.076.748A9.28 9.28 0 0 1 1.114.598a3.285 3.285 0 0 0 1.008 4.384A3.24 3.24 0 0 1 .64 4.578v.036a3.295 3.295 0 0 0 2.628 3.223 3.3 3.3 0 0 1-.86.108 3 3 0 0 1-.621-.056 3.31 3.31 0 0 0 3.065 2.285 6.6 6.6 0 0 1-4.067 1.399c-.269 0-.527-.012-.785-.045A9.23 9.23 0 0 0 5.032 13c6.036 0 9.336-5 9.336-9.334q0-.217-.012-.424A6.5 6.5 0 0 0 16 1.539"/></svg>